<svg width="30" height="30" viewBox="0 0 30 30" fill="none" xmlns="http://www.w3.org/2000/svg">
<rect width="30" height="30" rx="15" fill="#1F1F1F"/>
<path d="M18.3043 6.5C18.3443 6.5 18.3843 6.5 18.4265 6.5C18.5245 7.69888 18.0623 8.59467 17.5005 9.24338C16.9493 9.88761 16.1944 10.5124 14.9736 10.4176C14.8922 9.23591 15.3552 8.40656 15.9162 7.75934C16.4365 7.15617 17.3904 6.61944 18.3043 6.5Z" fill="#F4F4F4"/>
<path d="M22 18.9785C22 18.9904 22 19.0009 22 19.0121C21.6569 20.0407 21.1675 20.9223 20.5703 21.7405C20.0251 22.4833 19.357 23.4828 18.1641 23.4828C17.1333 23.4828 16.4486 22.8267 15.3921 22.8087C14.2746 22.7908 13.66 23.3574 12.6383 23.5C12.5214 23.5 12.4045 23.5 12.2899 23.5C11.5396 23.3925 10.9341 22.8043 10.4929 22.2742C9.19218 20.7081 8.18701 18.6851 8 16.0962C8 15.8424 8 15.5894 8 15.3356C8.07918 13.4827 8.98858 11.9763 10.1974 11.2462C10.8353 10.8581 11.7123 10.5274 12.6888 10.6752C13.1073 10.7394 13.5348 10.8812 13.9096 11.0215C14.2648 11.1567 14.7089 11.3963 15.1297 11.3836C15.4147 11.3754 15.6983 11.2283 15.9856 11.1246C16.8271 10.8237 17.6521 10.4788 18.7394 10.6408C20.0462 10.8364 20.9737 11.4112 21.5468 12.298C20.4413 12.9945 19.5674 14.0441 19.7167 15.8364C19.8494 17.4646 20.8056 18.4171 22 18.9785Z" fill="#F4F4F4"/>
</svg>
