<svg width="72" height="72" viewBox="0 0 72 72" fill="none" xmlns="http://www.w3.org/2000/svg">
<rect width="72" height="72" rx="10" fill="#27C4AA"/>
<path d="M24 39.4286H13.7143C12.7675 39.4286 12 40.1961 12 41.1429V58.2857C12 59.2325 12.7675 60 13.7143 60H24C24.9468 60 25.7143 59.2325 25.7143 58.2857V41.1429C25.7143 40.1961 24.9468 39.4286 24 39.4286Z" fill="white"/>
<path d="M58.2857 25.7143H48C47.0532 25.7143 46.2857 26.4818 46.2857 27.4286V58.2857C46.2857 59.2325 47.0532 60 48 60H58.2857C59.2325 60 60 59.2325 60 58.2857V27.4286C60 26.4818 59.2325 25.7143 58.2857 25.7143Z" fill="white"/>
<path d="M41.1429 12H30.8571C29.9104 12 29.1429 12.7675 29.1429 13.7143V58.2857C29.1429 59.2325 29.9104 60 30.8571 60H41.1429C42.0896 60 42.8571 59.2325 42.8571 58.2857V13.7143C42.8571 12.7675 42.0896 12 41.1429 12Z" fill="white"/>
</svg>
