<svg width="31" height="31" viewBox="0 0 31 31" fill="none" xmlns="http://www.w3.org/2000/svg">
<path d="M30.0963 18.9746C28.0556 27.1596 19.7657 32.1408 11.5798 30.0997C3.3973 28.0591 -1.58395 19.7687 0.457608 11.5842C2.49727 3.39831 10.7872 -1.58341 18.9707 0.457197C27.1561 2.49784 32.1369 10.7892 30.0963 18.9746Z" fill="#F7931A"/>
<path d="M10.2511 17.8517C10.168 18.058 9.95746 18.3673 9.48286 18.2499C9.4996 18.2742 8.26443 17.9457 8.26443 17.9457L7.43225 19.8646L9.61368 20.4085C10.0195 20.5101 10.4173 20.6166 10.8088 20.7169L10.115 23.5023L11.7894 23.9201L12.4765 21.1642C12.9339 21.2884 13.3779 21.4029 13.8124 21.5109L13.1277 24.2538L14.8041 24.6716L15.4978 21.8914C18.3563 22.4323 20.5057 22.2141 21.4105 19.6287C22.1396 17.5471 21.3742 16.3463 19.8703 15.5633C20.9656 15.3107 21.7906 14.5902 22.0107 13.102C22.3148 11.069 20.7669 9.97613 18.6504 9.24706L19.3369 6.4931L17.6606 6.07533L16.9922 8.75669C16.5515 8.64687 16.0988 8.54326 15.6491 8.4406L16.3223 5.74155L14.6469 5.32378L13.9599 8.07675C13.5951 7.99368 13.237 7.91152 12.8894 7.82513L12.8913 7.81652L10.5795 7.23928L10.1335 9.02973C10.1335 9.02973 11.3773 9.31477 11.351 9.33243C12.03 9.50193 12.1527 9.95118 12.1322 10.3074L10.2511 17.8517ZM18.1806 18.4728C17.6625 20.5545 14.1576 19.4291 13.0212 19.147L13.9418 15.4568C15.0781 15.7404 18.722 16.3019 18.1806 18.4728ZM18.6991 13.0719C18.2264 14.9655 15.3092 14.0035 14.3629 13.7676L15.1975 10.4206C16.1437 10.6565 19.1913 11.0967 18.6991 13.0719Z" fill="white"/>
</svg>
