<svg width="72" height="72" viewBox="0 0 72 72" fill="none" xmlns="http://www.w3.org/2000/svg">
<rect width="72" height="72" rx="10" fill="#27C4AA"/>
<path d="M40.9069 20.9398H26.2861C24.8972 20.9398 23.77 19.8032 23.77 18.4027V14.5371C23.77 13.1365 24.8972 12 26.2861 12H40.9069C42.2958 12 43.423 13.1365 43.423 14.5371V18.4027C43.423 19.8049 42.2958 20.9398 40.9069 20.9398Z" fill="white"/>
<path d="M57.8142 39.4107C56.2501 37.8336 53.7 37.8336 52.1359 39.4107L50.2794 41.293L55.9611 47.0202L57.8142 45.1517C59.3953 43.5592 59.3953 41.005 57.8142 39.4107Z" fill="white"/>
<path d="M48.4807 43.1135L38.5693 53.0904C38.3652 53.3132 38.2292 53.5875 38.1782 53.8789L37.4302 58.3188C37.2602 59.2959 38.1102 60.1359 39.0793 59.9816L43.4825 59.2274C43.7715 59.1759 44.0435 59.0388 44.2475 58.8331L54.159 48.8391L48.4807 43.1135Z" fill="white"/>
<path d="M48.0897 16.4742H45.9731V18.4027C45.9731 21.2192 43.7001 23.5111 40.9069 23.5111H26.2861C23.4912 23.5111 21.2199 21.2192 21.2199 18.4027V16.4742H19.0693C15.7201 16.4742 13 19.217 13 22.594V53.8789C13 57.256 15.7201 59.9988 19.0693 59.9988H35.147C34.8886 59.3285 34.7917 58.6017 34.9175 57.8765L35.6638 53.4487C35.7964 52.6635 36.1534 51.9384 36.6907 51.347L47.5117 40.4513L50.3253 37.5988C51.3709 36.5428 52.7122 35.9171 54.1556 35.7371V22.6112C54.159 19.1998 51.4559 16.4742 48.0897 16.4742ZM30.9495 41.9015H23.5728C22.7279 41.9015 22.0427 41.2107 22.0427 40.3587C22.0427 39.5067 22.7279 38.8159 23.5728 38.8159H30.9495C31.7944 38.8159 32.4796 39.5067 32.4796 40.3587C32.4796 41.2107 31.7944 41.9015 30.9495 41.9015ZM39.9803 33.1452H23.5745C22.7296 33.1452 22.0444 32.4543 22.0444 31.6024C22.0444 30.7504 22.7296 30.0595 23.5745 30.0595H39.9803C40.8253 30.0595 41.5104 30.7504 41.5104 31.6024C41.5104 32.4543 40.8253 33.1452 39.9803 33.1452Z" fill="white"/>
</svg>
