<svg width="72" height="72" viewBox="0 0 72 72" fill="none" xmlns="http://www.w3.org/2000/svg">
<rect width="72" height="72" rx="10" fill="#27C4AA"/>
<path d="M22.6844 21.1371L42.6171 15.6959L41.5615 13.5621C40.8709 12.1752 39.1864 11.6024 37.7995 12.2931L19.9556 21.1371H22.6844Z" fill="white"/>
<path d="M48.8046 15.8531C48.5576 15.8531 48.3105 15.8868 48.0634 15.9542L29.0797 21.1371H52.3869L51.5109 17.9252C51.1741 16.673 50.0399 15.8531 48.8046 15.8531Z" fill="white"/>
<path d="M55.3122 23.1024H13.813C12.9259 23.1024 12.1342 23.5123 11.6176 24.1581C11.3818 24.4557 11.2021 24.7982 11.1011 25.1744C11.0393 25.4102 11 25.6573 11 25.91V57.1924C11 58.7422 12.2577 60 13.8074 60H55.3066C56.8563 60 58.114 58.7422 58.114 57.1924V49.3592H41.4548C38.8214 49.3592 36.6822 47.2198 36.6822 44.5862V38.3421C36.6822 37.0506 37.1987 35.8771 38.0354 35.0179C38.7765 34.2542 39.7704 33.7376 40.8821 33.6085C41.0674 33.5861 41.2583 33.5748 41.4492 33.5748H58.114V25.91C58.1196 24.3602 56.8619 23.1024 55.3122 23.1024Z" fill="white"/>
<path d="M60.0848 36.2588C59.804 36.0005 59.4728 35.804 59.1022 35.6749C58.8158 35.5795 58.5126 35.5233 58.1926 35.5233H41.4548C39.9051 35.5233 38.6474 36.7811 38.6474 38.3309V44.5806C38.6474 46.1304 39.9051 47.3882 41.4548 47.3882H58.1926C58.5126 47.3882 58.8158 47.3321 59.1022 47.2366C59.4728 47.1131 59.804 46.9109 60.0848 46.6526C60.6463 46.1416 61 45.4004 61 44.5807V38.3309C61 37.511 60.6463 36.7698 60.0848 36.2588ZM47.3167 42.0145C47.3167 42.7894 46.6878 43.4183 45.913 43.4183H44.9809C44.2061 43.4183 43.5772 42.7894 43.5772 42.0145V41.0823C43.5772 40.6331 43.785 40.2344 44.1162 39.9817C44.3577 39.7964 44.6553 39.6785 44.9809 39.6785H45.913C46.6878 39.6785 47.3167 40.3074 47.3167 41.0823V42.0145Z" fill="white"/>
</svg>
