<svg width="18" height="18" viewBox="0 0 18 18" fill="none" xmlns="http://www.w3.org/2000/svg">
<path d="M9 0C4.038 0 0 4.038 0 9C0 13.962 4.038 18 9 18C13.962 18 18 13.962 18 9C18 4.038 13.962 0 9 0ZM9.536 5.42C9.502 5.42 9.47 5.406 9.446 5.384C9.42 5.36 9.406 5.326 9.406 5.29V1.006C9.406 0.966 9.424 0.929998 9.454 0.903999C9.478 0.886 9.506 0.875999 9.536 0.875999C9.546 0.875999 9.556 0.875999 9.564 0.879999C10.934 1.192 12.19 2.656 12.924 4.8C12.936 4.834 12.932 4.872 12.916 4.904C12.898 4.936 12.87 4.96 12.834 4.968C11.806 5.232 10.698 5.384 9.54 5.422C9.54 5.422 9.538 5.422 9.536 5.422V5.42ZM8.46 5.42C7.302 5.384 6.194 5.23 5.166 4.966C5.13 4.956 5.102 4.934 5.084 4.902C5.066 4.87 5.064 4.832 5.076 4.798C5.81 2.656 7.066 1.19 8.436 0.879999C8.446 0.878 8.456 0.875999 8.464 0.875999C8.494 0.875999 8.522 0.886 8.546 0.903999C8.576 0.927999 8.594 0.966 8.594 1.006V5.29C8.594 5.326 8.58 5.358 8.554 5.384C8.53 5.408 8.498 5.42 8.464 5.42C8.464 5.42 8.462 5.42 8.46 5.42ZM4.152 4.65C4.138 4.65 4.122 4.648 4.108 4.642C3.594 4.456 3.124 4.24 2.712 4.002C2.68 3.982 2.656 3.95 2.65 3.912C2.644 3.874 2.654 3.836 2.678 3.806C3.466 2.848 4.478 2.07 5.606 1.554C5.624 1.546 5.642 1.542 5.66 1.542C5.7 1.542 5.738 1.56 5.762 1.592C5.798 1.64 5.798 1.706 5.762 1.754C5.15 2.506 4.652 3.45 4.28 4.562C4.268 4.596 4.244 4.622 4.214 4.638C4.196 4.646 4.176 4.65 4.158 4.65H4.152ZM13.848 4.652C13.828 4.652 13.81 4.648 13.792 4.64C13.76 4.624 13.736 4.598 13.726 4.564C13.354 3.454 12.856 2.508 12.244 1.756C12.206 1.71 12.206 1.642 12.244 1.594C12.27 1.562 12.308 1.544 12.346 1.544C12.364 1.544 12.382 1.548 12.4 1.556C13.528 2.072 14.54 2.852 15.326 3.808C15.35 3.838 15.36 3.876 15.354 3.914C15.348 3.952 15.324 3.984 15.292 4.004C14.876 4.246 14.406 4.462 13.896 4.646C13.882 4.652 13.866 4.654 13.852 4.654L13.848 4.652ZM14.53 8.594C14.46 8.594 14.402 8.538 14.4 8.468C14.366 7.468 14.238 6.496 14.016 5.58C14 5.516 14.036 5.45 14.098 5.426C14.724 5.204 15.29 4.944 15.782 4.652C15.802 4.64 15.826 4.634 15.848 4.634C15.892 4.634 15.934 4.656 15.958 4.696C16.66 5.826 17.076 7.126 17.164 8.454C17.166 8.49 17.154 8.526 17.13 8.552C17.106 8.578 17.072 8.594 17.036 8.594H14.528H14.53ZM0.962 8.594C0.926 8.594 0.892 8.58 0.868 8.552C0.844 8.526 0.83 8.49 0.834 8.454C0.922 7.126 1.338 5.826 2.04 4.696C2.064 4.656 2.106 4.634 2.15 4.634C2.172 4.634 2.196 4.64 2.216 4.652C2.708 4.944 3.276 5.204 3.9 5.426C3.962 5.448 3.998 5.514 3.982 5.578C3.762 6.494 3.632 7.466 3.598 8.466C3.596 8.536 3.538 8.592 3.468 8.592H0.962V8.594ZM4.546 8.594C4.51 8.594 4.476 8.58 4.452 8.554C4.428 8.528 4.414 8.494 4.416 8.458C4.45 7.554 4.572 6.672 4.774 5.836C4.782 5.802 4.804 5.774 4.834 5.756C4.854 5.744 4.878 5.738 4.9 5.738C4.91 5.738 4.922 5.738 4.932 5.742C6.042 6.032 7.232 6.196 8.468 6.234C8.538 6.236 8.594 6.294 8.594 6.364V8.464C8.594 8.536 8.536 8.594 8.464 8.594H4.546ZM9.536 8.594C9.464 8.594 9.406 8.536 9.406 8.464V6.364C9.406 6.294 9.462 6.236 9.532 6.234C10.768 6.196 11.958 6.032 13.068 5.742C13.078 5.74 13.09 5.738 13.1 5.738C13.124 5.738 13.146 5.744 13.166 5.756C13.196 5.774 13.218 5.804 13.226 5.836C13.428 6.672 13.548 7.554 13.584 8.458C13.584 8.494 13.572 8.528 13.548 8.554C13.524 8.58 13.49 8.594 13.454 8.594H9.536ZM15.85 13.366C15.828 13.366 15.804 13.36 15.784 13.348C15.292 13.056 14.726 12.794 14.1 12.574C14.038 12.552 14.002 12.486 14.018 12.422C14.238 11.506 14.368 10.534 14.402 9.534C14.404 9.464 14.462 9.408 14.532 9.408H17.04C17.076 9.408 17.11 9.422 17.134 9.45C17.158 9.476 17.172 9.512 17.168 9.548C17.08 10.876 16.664 12.176 15.962 13.306C15.938 13.346 15.896 13.368 15.852 13.368L15.85 13.366ZM13.1 12.262C13.09 12.262 13.078 12.262 13.068 12.258C11.96 11.97 10.77 11.804 9.532 11.766C9.462 11.764 9.406 11.706 9.406 11.636V9.536C9.406 9.464 9.464 9.406 9.536 9.406H13.454C13.49 9.406 13.524 9.42 13.548 9.446C13.572 9.472 13.586 9.506 13.584 9.542C13.55 10.446 13.428 11.328 13.226 12.164C13.218 12.198 13.196 12.228 13.166 12.244C13.146 12.256 13.122 12.262 13.1 12.262ZM4.9 12.262C4.876 12.262 4.854 12.256 4.834 12.244C4.804 12.226 4.782 12.196 4.774 12.164C4.572 11.328 4.452 10.446 4.416 9.542C4.416 9.506 4.428 9.472 4.452 9.446C4.476 9.42 4.51 9.406 4.546 9.406H8.464C8.536 9.406 8.594 9.464 8.594 9.536V11.636C8.594 11.706 8.538 11.764 8.468 11.766C7.232 11.804 6.042 11.968 4.932 12.258C4.922 12.26 4.91 12.262 4.9 12.262ZM2.15 13.364C2.106 13.364 2.064 13.342 2.04 13.302C1.338 12.172 0.922 10.872 0.834 9.544C0.832 9.508 0.844 9.472 0.868 9.446C0.892 9.42 0.928 9.404 0.962 9.404H3.47C3.54 9.404 3.598 9.46 3.6 9.53C3.634 10.53 3.762 11.502 3.984 12.418C4 12.482 3.964 12.548 3.902 12.572C3.276 12.794 2.708 13.054 2.218 13.346C2.198 13.358 2.174 13.364 2.152 13.364H2.15ZM9.536 17.124C9.506 17.124 9.478 17.114 9.454 17.096C9.424 17.072 9.406 17.034 9.406 16.994V12.71C9.406 12.674 9.42 12.642 9.446 12.616C9.47 12.592 9.502 12.58 9.536 12.58C9.536 12.58 9.538 12.58 9.54 12.58C10.698 12.616 11.808 12.768 12.834 13.034C12.87 13.044 12.898 13.066 12.916 13.098C12.934 13.13 12.936 13.168 12.924 13.202C12.19 15.344 10.934 16.81 9.564 17.122C9.554 17.124 9.544 17.126 9.536 17.126V17.124ZM8.464 17.124C8.464 17.124 8.444 17.124 8.436 17.12C7.066 16.808 5.81 15.344 5.076 13.202C5.064 13.168 5.068 13.13 5.084 13.098C5.102 13.066 5.13 13.042 5.166 13.034C6.194 12.77 7.302 12.616 8.46 12.58C8.46 12.58 8.462 12.58 8.464 12.58C8.498 12.58 8.53 12.594 8.554 12.616C8.58 12.64 8.594 12.674 8.594 12.71V16.994C8.594 17.034 8.576 17.07 8.546 17.096C8.522 17.114 8.494 17.124 8.464 17.124ZM12.342 16.458C12.302 16.458 12.264 16.44 12.24 16.408C12.204 16.36 12.204 16.294 12.24 16.246C12.852 15.494 13.35 14.548 13.722 13.438C13.734 13.404 13.758 13.378 13.788 13.362C13.806 13.354 13.826 13.35 13.844 13.35C13.858 13.35 13.874 13.352 13.888 13.358C14.398 13.542 14.868 13.758 15.284 14C15.316 14.02 15.34 14.052 15.346 14.09C15.352 14.128 15.342 14.166 15.318 14.196C14.53 15.154 13.518 15.932 12.392 16.448C12.374 16.456 12.356 16.46 12.338 16.46L12.342 16.458ZM5.658 16.458C5.64 16.458 5.622 16.454 5.604 16.446C4.476 15.93 3.464 15.15 2.676 14.194C2.652 14.164 2.642 14.126 2.648 14.088C2.654 14.05 2.678 14.018 2.71 13.998C3.122 13.76 3.592 13.544 4.106 13.358C4.12 13.352 4.136 13.35 4.15 13.35C4.17 13.35 4.188 13.354 4.206 13.362C4.238 13.378 4.262 13.404 4.272 13.438C4.644 14.548 5.142 15.492 5.754 16.246C5.792 16.292 5.792 16.36 5.754 16.408C5.728 16.44 5.69 16.458 5.652 16.458H5.658Z" fill="#B9B9B9"/>
</svg>
