<svg width="20" height="20" viewBox="0 0 20 20" fill="none" xmlns="http://www.w3.org/2000/svg">
<path d="M1.30459 1.38854C-0.262557 3.01603 0.0581852 4.74487 0.0581852 9.99704C0.0581852 14.3586 -0.702955 18.731 3.28057 19.7603C4.52448 20.0802 15.5461 20.0802 16.7883 19.7587C18.4469 19.3308 19.7963 17.9858 19.9808 15.6405C20.0065 15.3132 20.0065 4.68672 19.98 4.35275C19.7839 1.85461 18.2458 0.41487 16.2191 0.123268C15.7546 0.0559748 15.6616 0.0360361 13.2784 0.0318822C4.82528 0.0360361 2.97229 -0.340305 1.30459 1.38854Z" fill="url(#paint0_linear_1_474)"/>
<path d="M10.0278 2.63969C7.01065 2.63969 4.14558 2.37135 3.05123 5.17937C2.5992 6.33913 2.66484 7.84533 2.66484 10.002C2.66484 11.8945 2.60418 13.6732 3.05123 14.8239C4.14308 17.6335 7.03143 17.3644 10.0261 17.3644C12.9153 17.3644 15.8942 17.6651 17.0019 14.8239C17.4547 13.6525 17.3883 12.1687 17.3883 10.002C17.3883 7.12588 17.547 5.26909 16.1518 3.87505C14.7392 2.46273 12.8289 2.63969 10.0245 2.63969H10.0278ZM9.36803 3.96644C15.6616 3.95647 16.4626 3.25696 16.0205 12.9745C15.8635 16.4115 13.246 16.0343 10.0286 16.0343C4.16219 16.0343 3.99351 15.8665 3.99351 9.9987C3.99351 4.06281 4.45884 3.96976 9.36803 3.96478V3.96644ZM13.9581 5.18851C13.4704 5.18851 13.0748 5.58396 13.0748 6.07162C13.0748 6.55929 13.4704 6.95474 13.9581 6.95474C14.4459 6.95474 14.8414 6.55929 14.8414 6.07162C14.8414 5.58396 14.4459 5.18851 13.9581 5.18851ZM10.0278 6.22116C7.93964 6.22116 6.24702 7.91429 6.24702 10.002C6.24702 12.0898 7.93964 13.7821 10.0278 13.7821C12.1159 13.7821 13.8077 12.0898 13.8077 10.002C13.8077 7.91429 12.1159 6.22116 10.0278 6.22116ZM10.0278 7.54791C13.2726 7.54791 13.2768 12.4561 10.0278 12.4561C6.78381 12.4561 6.77882 7.54791 10.0278 7.54791Z" fill="white"/>
<defs>
<linearGradient id="paint0_linear_1_474" x1="1.34283" y1="18.697" x2="19.8742" y2="2.65517" gradientUnits="userSpaceOnUse">
<stop stop-color="#FFDD55"/>
<stop offset="0.5" stop-color="#FF543E"/>
<stop offset="1" stop-color="#C837AB"/>
</linearGradient>
</defs>
</svg>
