<svg width="72" height="72" viewBox="0 0 72 72" fill="none" xmlns="http://www.w3.org/2000/svg">
<rect width="72" height="72" rx="10" fill="#27C4AA"/>
<path d="M55.7307 49.0434C54.1915 49.0434 52.7518 48.2824 51.8799 47.0079L49.5931 43.6656C46.8994 48.5189 41.7786 51.6521 36 51.6521C27.9368 51.6521 21.2846 45.4634 20.5004 37.5652H21.9808C22.5592 37.5652 23.0902 37.2431 23.3594 36.7286C23.6287 36.2142 23.5921 35.5921 23.2644 35.1132L17.5528 26.7653C17.2624 26.3406 16.7823 26.0868 16.2693 26.0868C16.2052 26.0868 16.1416 26.0907 16.0787 26.0985C16.0159 26.1062 15.9539 26.1179 15.8931 26.133C15.741 26.1711 15.5959 26.2318 15.4627 26.3129C15.2762 26.4263 15.1127 26.5794 14.9856 26.7652L9.27409 35.1131C8.9464 35.592 8.9098 36.2142 9.17906 36.7285C9.44832 37.2428 9.97925 37.5652 10.5577 37.5652H12.1651C12.5357 43.3867 14.9692 48.8085 19.1111 52.9706C23.6223 57.5036 29.6202 60 36 60C42.3798 60 48.3777 57.5036 52.8889 52.9706C54.0882 51.7655 55.1502 50.4435 56.0619 49.0305C55.952 49.0383 55.8417 49.0434 55.7307 49.0434Z" fill="white"/>
<path d="M37.187 34.4347H34.8134C34.3635 34.4347 33.9975 34.067 33.9975 33.6149V32.4223C33.9975 31.9703 34.3635 31.6025 34.8134 31.6025H37.187C37.6369 31.6025 38.0029 31.9703 38.0029 32.4223C38.0029 33.2867 38.7003 33.9875 39.5605 33.9875C40.4208 33.9875 41.1182 33.2866 41.1182 32.4223C41.1182 30.3699 39.5522 28.6786 37.5577 28.4902V27.6522C37.5577 26.7878 36.8602 26.087 36 26.087C35.1397 26.087 34.4424 26.7879 34.4424 27.6522V28.4902C32.448 28.6786 30.8819 30.3699 30.8819 32.4223V33.6149C30.8819 35.7931 32.6454 37.5652 34.8132 37.5652H37.1868C37.6367 37.5652 38.0027 37.9329 38.0027 38.385V39.5776C38.0027 40.0296 37.6366 40.3975 37.1868 40.3975H34.8132C34.3633 40.3975 33.9973 40.0297 33.9973 39.5777C33.9973 38.7132 33.2998 38.0125 32.4396 38.0125C31.5794 38.0125 30.882 38.7134 30.882 39.5777C30.882 41.6301 32.448 43.3214 34.4425 43.5098V44.3477C34.4425 45.2121 35.1399 45.9129 36.0001 45.9129C36.8604 45.9129 37.5578 45.212 37.5578 44.3477V43.5097C39.5521 43.3213 41.1183 41.63 41.1183 39.5776V38.385C41.1182 36.2068 39.3548 34.4347 37.187 34.4347Z" fill="white"/>
<path d="M62.8209 35.2713C62.5515 34.7569 62.0207 34.4347 61.4422 34.4347H59.8349C59.4643 28.6132 57.0308 23.1914 52.8888 19.0293C48.3777 14.4964 42.3797 12 36 12C29.6203 12 23.6222 14.4964 19.1111 19.0294C17.9119 20.2345 16.8499 21.5565 15.9381 22.9695C16.0479 22.9616 16.1582 22.9565 16.2693 22.9565C17.8086 22.9565 19.2481 23.7175 20.1201 24.992L22.4068 28.3343C25.1006 23.481 30.2214 20.3479 35.9999 20.3479C44.0632 20.3479 50.7153 26.5366 51.4996 34.4348H50.0191C49.4407 34.4348 48.9098 34.7569 48.6405 35.2714C48.3713 35.7858 48.4079 36.4079 48.7356 36.8868L54.4471 45.2347C54.5198 45.3409 54.6043 45.4364 54.6981 45.5199C54.9797 45.7704 55.346 45.9132 55.7308 45.9132C56.2437 45.9132 56.7239 45.6594 57.0144 45.2347L62.7259 36.8869C63.0537 36.4077 63.0902 35.7856 62.8209 35.2713Z" fill="white"/>
</svg>
