<svg width="20" height="20" viewBox="0 0 20 20" fill="none" xmlns="http://www.w3.org/2000/svg">
<path d="M7.26481 0H1.5227C0.683033 0 0 0.683028 0 1.52269V7.26476C0 8.10442 0.683033 8.78745 1.5227 8.78745H7.26481C8.10447 8.78745 8.7875 8.10442 8.7875 7.26476V1.52269C8.78737 0.683028 8.10447 0 7.26481 0Z" fill="white"/>
<path d="M18.4773 0H12.7352C11.8955 0 11.2125 0.683028 11.2125 1.52269V7.26476C11.2125 8.10442 11.8955 8.78745 12.7352 8.78745H18.4773C19.317 8.78745 20 8.10442 20 7.26476V1.52269C20 0.683028 19.317 0 18.4773 0Z" fill="white"/>
<path d="M7.26481 11.2126H1.5227C0.683033 11.2126 0 11.8955 0 12.7352V18.4772C0 19.3169 0.683033 19.9999 1.5227 19.9999H7.26481C8.10447 19.9999 8.7875 19.3169 8.7875 18.4772V12.7352C8.78737 11.8955 8.10447 11.2126 7.26481 11.2126Z" fill="white"/>
<path d="M18.4773 11.2126H12.7352C11.8955 11.2126 11.2125 11.8956 11.2125 12.7352V18.4773C11.2125 19.317 11.8955 20 12.7352 20H18.4773C19.317 19.9999 20 19.3169 20 18.4772V12.7352C20 11.8955 19.317 11.2126 18.4773 11.2126Z" fill="white"/>
</svg>
