<svg width="20" height="20" viewBox="0 0 20 20" fill="none" xmlns="http://www.w3.org/2000/svg">
<path fill-rule="evenodd" clip-rule="evenodd" d="M9.06832 13.0244C9.06832 12.4691 8.84789 11.9369 8.45516 11.5448C8.06313 11.1521 7.53089 10.9317 6.97563 10.9317C5.59027 10.9317 3.47805 10.9317 2.09269 10.9317C1.53743 10.9317 1.00519 11.1521 0.613156 11.5448C0.220428 11.9369 0 12.4691 0 13.0244V17.9073C0 18.4626 0.220428 18.9948 0.613156 19.3868C1.00519 19.7796 1.53743 20 2.09269 20H6.97563C7.53089 20 8.06313 19.7796 8.45516 19.3868C8.84789 18.9948 9.06832 18.4626 9.06832 17.9073V13.0244ZM19.5318 13.0244C19.5318 12.4691 19.3113 11.9369 18.9186 11.5448C18.5266 11.1521 17.9943 10.9317 17.4391 10.9317C16.0537 10.9317 13.9415 10.9317 12.5561 10.9317C12.0009 10.9317 11.4686 11.1521 11.0766 11.5448C10.6839 11.9369 10.4634 12.4691 10.4634 13.0244V17.9073C10.4634 18.4626 10.6839 18.9948 11.0766 19.3868C11.4686 19.7796 12.0009 20 12.5561 20H17.4391C17.9943 20 18.5266 19.7796 18.9186 19.3868C19.3113 18.9948 19.5318 18.4626 19.5318 17.9073V13.0244ZM16.4771 9.39216L19.3874 6.48193C20.2042 5.66508 20.2042 4.33971 19.3874 3.52287L16.4771 0.612635C15.6603 -0.204212 14.3349 -0.204212 13.5181 0.612635L10.6078 3.52287C9.79099 4.33971 9.79099 5.66508 10.6078 6.48193L13.5181 9.39216C14.3349 10.209 15.6603 10.209 16.4771 9.39216ZM9.06832 2.56093C9.06832 2.00567 8.84789 1.47343 8.45516 1.08139C8.06313 0.688667 7.53089 0.468239 6.97563 0.468239C5.59027 0.468239 3.47805 0.468239 2.09269 0.468239C1.53743 0.468239 1.00519 0.688667 0.613156 1.08139C0.220428 1.47343 0 2.00567 0 2.56093V7.44387C0 7.99913 0.220428 8.53137 0.613156 8.9234C1.00519 9.31613 1.53743 9.53656 2.09269 9.53656H6.97563C7.53089 9.53656 8.06313 9.31613 8.45516 8.9234C8.84789 8.53137 9.06832 7.99913 9.06832 7.44387V2.56093Z" fill="#27C4AA"/>
</svg>
