<svg width="24" height="14" viewBox="0 0 24 14" fill="none" xmlns="http://www.w3.org/2000/svg">
<path d="M24 0.91156C23.999 0.670094 23.9016 0.438794 23.7288 0.268051C23.5561 0.0973082 23.3221 0.000959396 23.0778 0H17.9701C17.7255 0 17.4909 0.0960379 17.318 0.266989C17.1451 0.43794 17.0479 0.669799 17.0479 0.91156C17.0479 1.15332 17.1451 1.38518 17.318 1.55613C17.4909 1.72708 17.7255 1.82312 17.9701 1.82312H20.851L13.4587 9.1314C13.4007 9.18796 13.3226 9.21968 13.2411 9.21968C13.1596 9.21968 13.0814 9.18796 13.0235 9.1314L9.84373 5.98835C9.44024 5.58978 8.89316 5.3659 8.32273 5.3659C7.75231 5.3659 7.20522 5.58978 6.80173 5.98835L0.293513 12.4215C0.202909 12.505 0.130237 12.6056 0.0798341 12.7174C0.0294309 12.8293 0.00232823 12.95 0.000143519 13.0724C-0.0020412 13.1948 0.0207365 13.3163 0.0671179 13.4298C0.113499 13.5433 0.182534 13.6465 0.270104 13.733C0.357674 13.8196 0.461985 13.8878 0.576814 13.9337C0.691643 13.9795 0.814638 14.002 0.938461 13.9999C1.06228 13.9977 1.1844 13.9709 1.29752 13.9211C1.41064 13.8713 1.51245 13.7994 1.59688 13.7099L8.10509 7.27668C8.16308 7.22013 8.24127 7.18841 8.32273 7.18841C8.4042 7.18841 8.48238 7.22013 8.54037 7.27668L11.7201 10.4197C12.1236 10.8183 12.6707 11.0422 13.2411 11.0422C13.8115 11.0422 14.3586 10.8183 14.7621 10.4197L22.1556 3.11268V5.96039C22.1556 6.20215 22.2528 6.43401 22.4257 6.60496C22.5987 6.77591 22.8332 6.87195 23.0778 6.87195C23.3224 6.87195 23.557 6.77591 23.7299 6.60496C23.9028 6.43401 24 6.20215 24 5.96039V0.91156Z" fill="#09ED7B"/>
</svg>
