<svg width="24" height="14" viewBox="0 0 24 14" fill="none" xmlns="http://www.w3.org/2000/svg">
<path d="M24 13.0884C23.999 13.3299 23.9016 13.5612 23.7288 13.7319C23.5561 13.9027 23.3221 13.999 23.0778 14H17.9701C17.7255 14 17.4909 13.904 17.318 13.733C17.1451 13.5621 17.0479 13.3302 17.0479 13.0884C17.0479 12.8467 17.1451 12.6148 17.318 12.4439C17.4909 12.2729 17.7255 12.1769 17.9701 12.1769H20.851L13.4587 4.8686C13.4007 4.81204 13.3226 4.78032 13.2411 4.78032C13.1596 4.78032 13.0814 4.81204 13.0235 4.8686L9.84373 8.01165C9.44024 8.41022 8.89316 8.6341 8.32273 8.6341C7.75231 8.6341 7.20522 8.41022 6.80173 8.01165L0.293513 1.57847C0.202909 1.49502 0.130237 1.39438 0.0798341 1.28256C0.0294309 1.17074 0.00232823 1.05004 0.000143519 0.927641C-0.0020412 0.805246 0.0207365 0.683669 0.0671179 0.570163C0.113499 0.456658 0.182534 0.35355 0.270104 0.26699C0.357674 0.180429 0.461985 0.11219 0.576814 0.0663438C0.691643 0.0204972 0.814638 -0.00201766 0.938461 0.000141866C1.06228 0.0023014 1.1844 0.029091 1.29752 0.0789132C1.41064 0.128735 1.51245 0.200569 1.59688 0.290129L8.10509 6.72332C8.16308 6.77987 8.24127 6.81159 8.32273 6.81159C8.4042 6.81159 8.48238 6.77987 8.54037 6.72332L11.7201 3.58026C12.1236 3.18169 12.6707 2.95781 13.2411 2.95781C13.8115 2.95781 14.3586 3.18169 14.7621 3.58026L22.1556 10.8873V8.03961C22.1556 7.79785 22.2528 7.56599 22.4257 7.39504C22.5987 7.22409 22.8332 7.12805 23.0778 7.12805C23.3224 7.12805 23.557 7.22409 23.7299 7.39504C23.9028 7.56599 24 7.79785 24 8.03961V13.0884Z" fill="#E93131"/>
</svg>
